<svg xmlns="http://www.w3.org/2000/svg" xmlns:xlink="http://www.w3.org/1999/xlink" width="208" height="35" viewBox="0 0 208 35"><defs><style>.cls-1{fill:none;}.cls-2{clip-path:url(#clip-path);}.cls-3{fill:#19ce2a;}.cls-4{fill:#231f20;}</style><clipPath id="clip-path"><rect class="cls-1" x="-1222.91" y="-1635.9" width="2533" height="1440"/></clipPath></defs><title>logo</title><g id="Layer_1" data-name="Layer 1"><g class="cls-2"><path class="cls-3" d="M56.72,32.85H55.66a9.72,9.72,0,0,1,0,2.9,6.31,6.31,0,0,0-.89-.46,3.15,3.15,0,0,0-1.13-.18c-.33,0-.59,0-.65,0a.52.52,0,0,0-.46.54c0,.12,0,.26,0,.41,0,.54,0,1.2,0,1.48a7.57,7.57,0,0,1-.91.65,3.63,3.63,0,0,0-1.16,1,.92.92,0,0,0,.43,1.26,3.24,3.24,0,0,1,.46.41c0,.1-.19.29-.72.66a2.53,2.53,0,0,1-.05-.38c-.08-.92-1.42-1.46-1.44-1.47-.41-.14-.63.13-1.22.86l-.14.17-.24-.06a5,5,0,0,0-1.58-.28.85.85,0,0,0-.57.36,8.22,8.22,0,0,0-.69,4.69c0,.16.06.29.08.42s.08.49.1.63l-.19.06-.16,0a3.5,3.5,0,0,0-1.77,1.54L42,48a2.64,2.64,0,0,1-1-.59,4.35,4.35,0,0,0-1.73-.91,2.1,2.1,0,0,0-2,.58,2.07,2.07,0,0,1-.49.34,3.81,3.81,0,0,1-1.62-.33,6,6,0,0,0-1.27-.33c-.76,0-1.11.66-1.36,1.18-.12.24-.28.57-.41.63a4.87,4.87,0,0,0-1.53,2.27,2.09,2.09,0,0,0-.69-.75s0,0,0-.05a1.19,1.19,0,0,1,.3-.8c.51-.63.76-2.29.28-2.83a.75.75,0,0,0-.58-.25,1.8,1.8,0,0,0-.73.19.31.31,0,0,1,0-.08,1.8,1.8,0,0,0-.73-1.91c-.47-.36-.93,0-1.12.2a1.59,1.59,0,0,1-.22.18,1.22,1.22,0,0,1-.26-.34c-.92-1.61-3.66-1.57-4.69-1.55h-.16a1.2,1.2,0,0,0-1,.64c-.14.2-.21.28-.37.33-.38.09-.94-.29-1.29-.64s-.61-.38-6.51-.81c-.83-.06-1.49-.11-1.73-.14s-.4-.29-.41-1.48a1.15,1.15,0,0,0,0-.2c0-.07,0-.1,0-.1l.09-.09.14-.13c.33-.37.45-2,.49-3.24a2.48,2.48,0,0,0-.61-1.43H9.45a.49.49,0,0,0,.06.17,2.09,2.09,0,0,0,.18.25c.14.18.57.73.56,1A14.72,14.72,0,0,1,10,39.6l-.06.06a1.14,1.14,0,0,0-.4,1v.16c0,.64,0,2.36,1.34,2.51l1.78.14c1.72.13,5.27.39,5.9.57a2.59,2.59,0,0,0,2.23.85,1.66,1.66,0,0,0,1-.74c0-.07.11-.17.17-.19h.18c2.09,0,3.35.32,3.76,1a1.55,1.55,0,0,0,1,.86,1.33,1.33,0,0,0,1.07-.42.74.74,0,0,1,.15.68c-.28,1.23.08,1.49.2,1.58a.6.6,0,0,0,.68,0l.08-.05a4.44,4.44,0,0,1,.56-.32,2.53,2.53,0,0,1-.3,1.32,2.19,2.19,0,0,0-.51,1.66,1.08,1.08,0,0,0,.55.77,2.86,2.86,0,0,1,.54.81c.19.37.34.66.69.67h0a.56.56,0,0,0,.48-.28c0-.06.07-.14.17-.38.8-1.83,1.15-2.24,1.28-2.31a2.19,2.19,0,0,0,.9-1.13,2.17,2.17,0,0,1,.35-.59,5.94,5.94,0,0,1,1,.28,3.67,3.67,0,0,0,2.37.3,2.91,2.91,0,0,0,.73-.49A1.14,1.14,0,0,1,39,47.56a3.61,3.61,0,0,1,1.32.73,3.3,3.3,0,0,0,1.57.79c.91.08,1.32.12,1.6-.25l.08-.11a2.51,2.51,0,0,1,1.23-1.16l.15,0c1.11-.32,1-.78.84-1.88,0-.13-.05-.26-.08-.42a8,8,0,0,1,.46-3.83,6.33,6.33,0,0,1,1.07.25c.54.15.74.21,1,.07s.2-.17.49-.53l.32-.39c.23.14.46.32.48.43.07.78.29,1.27.67,1.44a.75.75,0,0,0,.77-.1l.15-.11c.6-.42,1.2-.88,1.28-1.49a.94.94,0,0,0-.25-.78,3.47,3.47,0,0,0-.64-.58h0c.18-.15.48-.34.7-.49.83-.54,1.3-.87,1.37-1.32s0-1.09,0-1.62a2.4,2.4,0,0,1,.8.1,9.5,9.5,0,0,1,1.38.81.54.54,0,0,0,.51,0,.57.57,0,0,0,.31-.4,14.69,14.69,0,0,0,.18-3.87M43,14.16a4,4,0,0,1-1.69-2.62,1.51,1.51,0,0,1,.39-.19.76.76,0,0,0,.53-.4.87.87,0,0,0,0-.71c-.24-.57-1.78-3-3.47-3.37a11,11,0,0,0-1.39-.22,5.22,5.22,0,0,1-.67-.09c.67-.2,1.08-1,1.06-2,0-.55,0-.55.44-.62.69-.1,1.27-.87,1.86-1.71l.18-.26.23,0c.3,0,1.09-.1,1.12-1A2.47,2.47,0,0,0,40.29-1a.63.63,0,0,0-.72,0l-.17.16c-.78.72-1.06.78-1.13.78-.65-.17-1.13.35-1.51.76-.16.16-.36.39-.47.42A2.75,2.75,0,0,1,35.47,1c-.65-.17-1.25-.33-1.64.06-.2.19-.27.48-.45,1.28-.26,1.1-.79,3.4-1.79,3.54A15,15,0,0,1,29.75,6C28,6,26.08,6,25.47,7.28a1.73,1.73,0,0,1-1.41,1,2.18,2.18,0,0,0-.81.32s-2.8,2.56-2.8,3.15c0,.14,0,.19.42,1.22.17.44.44,1.13.69,1.8h1.11c-.2-.56-.47-1.27-.83-2.18l-.29-.76A24.06,24.06,0,0,1,23.86,9.5a1.74,1.74,0,0,1,.45-.16,2.74,2.74,0,0,0,2.12-1.63C26.75,7,28.34,7,29.75,7a15.43,15.43,0,0,0,2-.08C33.45,6.7,34,4.13,34.4,2.59c.05-.24.12-.53.17-.7A5.12,5.12,0,0,1,35.2,2a2.4,2.4,0,0,0,1.45.12,2.38,2.38,0,0,0,.87-.69c.14-.14.39-.42.51-.45.64.15,1.31-.34,2-.93a1.77,1.77,0,0,1,.5.75l-.17,0a1.28,1.28,0,0,0-.93.39l-.24.34c-.57.82-1,1.25-1.16,1.28-1,.15-1.34.62-1.33,1.67,0,.68-.2,1-.31,1a1.38,1.38,0,0,0-1,.86.52.52,0,0,0,.07.5,2.19,2.19,0,0,0,1.81.78,8.86,8.86,0,0,1,1.25.2c1.08.26,2.28,1.89,2.66,2.56a2.8,2.8,0,0,0-.45.26,1.07,1.07,0,0,0-.41.87,5,5,0,0,0,1.9,3.24h1.49a4.49,4.49,0,0,0-.65-.66"/><path class="cls-3" d="M43,14.16a4,4,0,0,1-1.69-2.62,1.26,1.26,0,0,1,.39-.19.78.78,0,0,0,.53-.4.87.87,0,0,0-.05-.71c-.24-.57-1.78-3-3.48-3.37a10.65,10.65,0,0,0-1.38-.22,5.22,5.22,0,0,1-.67-.09c.67-.2,1.07-1,1.06-2,0-.55,0-.55.43-.62.69-.1,1.28-.87,1.87-1.71l.18-.26.23,0c.3,0,1.09-.1,1.12-1A2.49,2.49,0,0,0,40.3-1a.62.62,0,0,0-.72,0l-.18.16c-.77.72-1,.78-1.12.78-.65-.17-1.13.35-1.52.76a2,2,0,0,1-.46.42A2.7,2.7,0,0,1,35.48,1c-.65-.17-1.26-.33-1.65.06-.19.19-.26.48-.45,1.28-.25,1.1-.78,3.4-1.78,3.54A15,15,0,0,1,29.76,6C28,6,26.09,6,25.48,7.28a1.73,1.73,0,0,1-1.42,1,2.18,2.18,0,0,0-.81.32s-2.8,2.56-2.8,3.15c0,.14,0,.19.43,1.22.19.5.53,1.35.8,2.11h1.11c-.21-.6-.52-1.41-.94-2.49l-.29-.76A24.06,24.06,0,0,1,23.87,9.5a1.5,1.5,0,0,1,.45-.16,2.71,2.71,0,0,0,2.11-1.63C26.76,7,28.35,7,29.75,7a15.59,15.59,0,0,0,2-.08c1.72-.23,2.31-2.8,2.66-4.34.06-.24.13-.53.18-.7a5.12,5.12,0,0,1,.63.14,2.4,2.4,0,0,0,1.45.12,2.38,2.38,0,0,0,.87-.69c.14-.14.39-.42.51-.45.63.15,1.31-.34,2-.93a1.77,1.77,0,0,1,.5.75l-.17,0a1.28,1.28,0,0,0-.93.39l-.24.34c-.57.82-1,1.25-1.16,1.28-1,.15-1.34.62-1.33,1.67,0,.68-.2,1-.31,1a1.43,1.43,0,0,0-1,.86.53.53,0,0,0,.08.5,2.19,2.19,0,0,0,1.81.78,9.09,9.09,0,0,1,1.25.2c1.08.26,2.28,1.89,2.66,2.56a2.43,2.43,0,0,0-.45.26,1.07,1.07,0,0,0-.41.87A5.16,5.16,0,0,0,42.35,15a3.51,3.51,0,0,1,.51.51h.66l.6,0A4.59,4.59,0,0,0,43,14.16M56.73,32.85H55.67a9.72,9.72,0,0,1-.05,2.9,6.31,6.31,0,0,0-.89-.46,3.17,3.17,0,0,0-1.14-.18c-.33,0-.58,0-.64,0a.52.52,0,0,0-.46.54c0,.12,0,.26,0,.41,0,.54,0,1.2,0,1.48a7.57,7.57,0,0,1-.91.65,3.83,3.83,0,0,0-1.17,1,.93.93,0,0,0,.44,1.26,3.24,3.24,0,0,1,.46.41c0,.1-.2.29-.72.66,0-.09,0-.22-.06-.38-.07-.92-1.42-1.46-1.43-1.47-.41-.14-.63.13-1.22.86l-.15.17-.23-.06a5,5,0,0,0-1.58-.28.85.85,0,0,0-.57.36,8.22,8.22,0,0,0-.69,4.69c0,.16.06.29.08.42s.08.49.1.63l-.19.06-.16,0a3.57,3.57,0,0,0-1.78,1.54L42,48a2.58,2.58,0,0,1-1-.59,4.35,4.35,0,0,0-1.73-.91,2.1,2.1,0,0,0-2,.58,2.29,2.29,0,0,1-.49.34,3.81,3.81,0,0,1-1.62-.33,6,6,0,0,0-1.27-.33c-.76,0-1.11.66-1.36,1.18-.12.24-.28.57-.41.63a4.8,4.8,0,0,0-1.53,2.27,2.11,2.11,0,0,0-.7-.75s0,0,0-.05a1.19,1.19,0,0,1,.3-.8c.51-.63.76-2.29.28-2.83a.75.75,0,0,0-.58-.25,1.76,1.76,0,0,0-.73.19.31.31,0,0,1,0-.08,1.8,1.8,0,0,0-.73-1.91c-.47-.36-.93,0-1.12.2a2.53,2.53,0,0,1-.22.18,1.22,1.22,0,0,1-.26-.34c-.92-1.61-3.66-1.57-4.69-1.55h-.16a1.23,1.23,0,0,0-1,.64c-.13.2-.2.28-.36.33-.39.09-.94-.29-1.3-.64s-.6-.38-6.5-.81L11,42.27c-.17,0-.39-.29-.4-1.48a1.15,1.15,0,0,0,0-.2c0-.07,0-.1,0-.1l.09-.09.14-.13c.33-.37.45-2,.49-3.24a2.5,2.5,0,0,0-.63-1.45.73.73,0,0,1-.07-.13H9.44a.53.53,0,0,0,.08.32A2.09,2.09,0,0,0,9.7,36c.14.18.57.73.56,1A14.72,14.72,0,0,1,10,39.6l-.07.06a1.14,1.14,0,0,0-.39,1v.16c0,.64,0,2.36,1.34,2.51l1.78.14c1.72.13,5.27.39,5.9.57a2.58,2.58,0,0,0,2.22.85,1.63,1.63,0,0,0,1-.74c0-.07.12-.17.18-.19h.17c2.1,0,3.36.32,3.77,1a1.55,1.55,0,0,0,1,.86A1.33,1.33,0,0,0,28,45.4a.74.74,0,0,1,.15.68c-.28,1.23.08,1.49.2,1.58a.6.6,0,0,0,.68,0l.08-.05a4.44,4.44,0,0,1,.56-.32,2.63,2.63,0,0,1-.3,1.32,2.19,2.19,0,0,0-.51,1.66,1.08,1.08,0,0,0,.55.77,2.86,2.86,0,0,1,.54.81c.19.37.34.66.69.67h0a.54.54,0,0,0,.47-.28,2.3,2.3,0,0,0,.18-.38c.79-1.83,1.15-2.24,1.28-2.31a2.19,2.19,0,0,0,.9-1.13,2.17,2.17,0,0,1,.35-.59,5.94,5.94,0,0,1,1,.28,3.67,3.67,0,0,0,2.37.3,2.91,2.91,0,0,0,.73-.49A1.14,1.14,0,0,1,39,47.56a3.61,3.61,0,0,1,1.32.73,3.3,3.3,0,0,0,1.57.79c.91.08,1.32.12,1.6-.25l.08-.11a2.47,2.47,0,0,1,1.23-1.16l.15,0c1.11-.32,1-.78.84-1.88,0-.13-.05-.26-.08-.42a8,8,0,0,1,.46-3.83,6.33,6.33,0,0,1,1.07.25c.54.15.74.21,1,.07a2.37,2.37,0,0,0,.49-.53l.32-.39c.22.14.45.32.48.43.07.78.29,1.27.67,1.44a.75.75,0,0,0,.77-.1l.15-.11c.6-.42,1.2-.88,1.28-1.49a1,1,0,0,0-.25-.78,3.47,3.47,0,0,0-.64-.58h0a8.48,8.48,0,0,1,.7-.49c.83-.54,1.3-.87,1.37-1.32s0-1.09,0-1.62a2.3,2.3,0,0,1,.79.1,9.65,9.65,0,0,1,1.39.81.52.52,0,0,0,.81-.35,14.67,14.67,0,0,0,.19-3.87"/><path class="cls-3" d="M37.67,18a7.55,7.55,0,0,0-5.37-2.22h0a7.6,7.6,0,0,0-5.38,13l5.38,5.38,5.37-5.38a7.59,7.59,0,0,0,0-10.75M35.8,27.1a5,5,0,0,1-7,0A5.3,5.3,0,0,1,27.24,24a5.09,5.09,0,1,1,10.15-.37A5.3,5.3,0,0,1,35.8,27.1"/><path class="cls-3" d="M36.17,23.56a4,4,0,0,1-1.24,2.67,3.81,3.81,0,0,1-5.27,0,4,4,0,0,1-1.21-2.39,3.88,3.88,0,1,1,7.72-.28"/><path class="cls-4" d="M61.43,31.12a1.09,1.09,0,0,1-.85.42h-6.1a4.89,4.89,0,0,0-9.77,0h-8l1.86-1.85a8.9,8.9,0,0,0,2.6-5.94h4.49a1.62,1.62,0,0,0,1.41-2.42l-.89-1.56a2.9,2.9,0,0,0-2.51-1.46H39.62a9,9,0,0,0-1-1.22c-.1-.1-.2-.2-.31-.29h5.23a4.86,4.86,0,0,1,4,2.12l2.34,3.42A5,5,0,0,0,53,24.45L60.11,26a1.12,1.12,0,0,1,.84.86l.7,3.36a1.06,1.06,0,0,1-.22.91"/><path class="cls-4" d="M46,22.33a.41.41,0,0,1-.35.2H41.17a8.89,8.89,0,0,0-.84-3H43.7a1.67,1.67,0,0,1,1.45.85L46,21.93a.42.42,0,0,1,0,.4"/><path class="cls-4" d="M25.24,17.65H16.15a.61.61,0,0,1-.61-.61.62.62,0,0,1,.61-.61h9.09a.61.61,0,0,1,.61.61.61.61,0,0,1-.61.61"/><path class="cls-4" d="M22.43,21.77H7.59A.61.61,0,0,1,7,21.16a.61.61,0,0,1,.61-.61H22.43a.61.61,0,0,1,.61.61.61.61,0,0,1-.61.61"/><path class="cls-4" d="M23.64,30H5.17a.62.62,0,0,1-.61-.61.61.61,0,0,1,.61-.61H23.64a.61.61,0,0,1,.61.61.61.61,0,0,1-.61.61"/><path class="cls-4" d="M27.8,34.14H17.27a.61.61,0,0,1-.61-.61.61.61,0,0,1,.61-.61H27.8a.61.61,0,0,1,.61.61.61.61,0,0,1-.61.61"/><path class="cls-4" d="M13.09,34.14h-4a.62.62,0,0,1-.61-.61.61.61,0,0,1,.61-.61h4a.61.61,0,0,1,.61.61.61.61,0,0,1-.61.61"/><path class="cls-4" d="M22.43,26H16.75a.61.61,0,0,1-.61-.61.61.61,0,0,1,.61-.61h5.68a.61.61,0,0,1,.61.61.61.61,0,0,1-.61.61"/><path class="cls-4" d="M13.91,25.81H11a.61.61,0,0,1-.61-.61.61.61,0,0,1,.61-.61h2.91a.61.61,0,0,1,.61.61.61.61,0,0,1-.61.61"/><path class="cls-4" d="M49.59,35.67a3.94,3.94,0,1,1,3.94-3.94,3.95,3.95,0,0,1-3.94,3.94m0-5.86a1.92,1.92,0,1,0,1.92,1.92,1.92,1.92,0,0,0-1.92-1.92"/></g></g><g id="Layer_2" data-name="Layer 2"><path class="cls-3" d="M34.27,22.06h-.68a6.5,6.5,0,0,1,0,1.87,3.16,3.16,0,0,0-.57-.3,2.28,2.28,0,0,0-.73-.12c-.21,0-.38,0-.41,0a.33.33,0,0,0-.3.35,2.35,2.35,0,0,0,0,.26c0,.35,0,.77,0,.95a4.64,4.64,0,0,1-.58.42,2.36,2.36,0,0,0-.75.61.59.59,0,0,0,.28.81,2.18,2.18,0,0,1,.29.26c0,.07-.12.19-.46.43,0-.07,0-.15,0-.25-.05-.59-.9-.94-.91-.94-.27-.09-.41.08-.79.55l-.09.11-.15,0a3.21,3.21,0,0,0-1-.18.55.55,0,0,0-.36.24,5.27,5.27,0,0,0-.44,3c0,.1,0,.19.05.27s.05.31.06.4l-.12,0-.1,0a2.28,2.28,0,0,0-1.14,1l-.48,0a1.67,1.67,0,0,1-.67-.38A2.87,2.87,0,0,0,23,30.84a1.35,1.35,0,0,0-1.25.37,1.53,1.53,0,0,1-.32.22,2.76,2.76,0,0,1-1-.21,3.35,3.35,0,0,0-.81-.21c-.49,0-.71.42-.87.75a1.21,1.21,0,0,1-.26.41c-.33.15-.64.69-1,1.45a1.28,1.28,0,0,0-.44-.48s0,0,0,0a.77.77,0,0,1,.19-.51,1.91,1.91,0,0,0,.18-1.82.48.48,0,0,0-.37-.16,1,1,0,0,0-.47.13s0,0,0-.06a1.14,1.14,0,0,0-.47-1.22c-.3-.23-.59,0-.71.13l-.15.11a.76.76,0,0,1-.16-.22c-.59-1-2.35-1-3-1H12a.77.77,0,0,0-.66.41c-.09.13-.13.18-.24.21s-.6-.18-.83-.41-.39-.24-4.17-.52L5,28.1c-.11,0-.25-.19-.26-1V27l0-.05.09-.09a5.18,5.18,0,0,0,.32-2.07,1.52,1.52,0,0,0-.4-.92H4a.25.25,0,0,0,0,.11l.11.16a1.55,1.55,0,0,1,.37.63,9.83,9.83,0,0,1-.17,1.66s0,0,0,0a.69.69,0,0,0-.25.63v.1c0,.41,0,1.52.86,1.61L6,28.86c1.1.08,3.38.25,3.78.37a1.69,1.69,0,0,0,1.43.54,1,1,0,0,0,.62-.48s.07-.11.11-.12h.11c1.34,0,2.16.2,2.42.66a1,1,0,0,0,.64.55.84.84,0,0,0,.68-.27.47.47,0,0,1,.1.43c-.18.79.05,1,.13,1a.38.38,0,0,0,.43,0l.06,0a2.58,2.58,0,0,1,.35-.2,1.61,1.61,0,0,1-.19.84,1.4,1.4,0,0,0-.33,1.07.7.7,0,0,0,.36.49,1.68,1.68,0,0,1,.34.52c.12.23.22.42.45.43h0a.35.35,0,0,0,.3-.18,1.13,1.13,0,0,0,.11-.24c.51-1.18.74-1.44.83-1.49a1.4,1.4,0,0,0,.57-.72c.06-.12.17-.35.23-.37a3.64,3.64,0,0,1,.64.17,2.35,2.35,0,0,0,1.52.19,1.83,1.83,0,0,0,.47-.31.73.73,0,0,1,.7-.24,2.36,2.36,0,0,1,.84.47,2.16,2.16,0,0,0,1,.51c.58.05.85.08,1-.16l0-.08a1.67,1.67,0,0,1,.79-.74l.09,0c.72-.2.66-.49.54-1.2,0-.08,0-.17-.05-.26a5.19,5.19,0,0,1,.29-2.46,3.61,3.61,0,0,1,.69.16c.35.09.47.13.63,0s.12-.1.31-.34c.06-.06.14-.17.21-.25.14.09.29.21.31.28,0,.5.18.81.42.92a.51.51,0,0,0,.5-.06.35.35,0,0,1,.09-.07c.39-.27.77-.57.82-1a.62.62,0,0,0-.15-.5,2.17,2.17,0,0,0-.42-.37h0c.11-.09.31-.22.45-.31.53-.34.83-.55.88-.84a8.81,8.81,0,0,0,0-1.05,1.49,1.49,0,0,1,.51.07,6,6,0,0,1,.89.52.36.36,0,0,0,.32,0,.34.34,0,0,0,.2-.26,9.45,9.45,0,0,0,.12-2.48m-8.79-12A2.62,2.62,0,0,1,24.39,8.4a1,1,0,0,1,.25-.11A.52.52,0,0,0,25,8a.54.54,0,0,0,0-.46,4.51,4.51,0,0,0-2.23-2.16,8.3,8.3,0,0,0-.89-.14,3,3,0,0,1-.43-.06c.43-.12.69-.62.68-1.31,0-.35,0-.35.28-.4.45-.06.82-.55,1.2-1.1l.11-.16.15,0c.19,0,.7-.07.72-.61a1.61,1.61,0,0,0-.8-1.22.4.4,0,0,0-.46,0l-.12.1c-.49.46-.67.5-.72.5-.41-.1-.72.23-1,.49a1.35,1.35,0,0,1-.29.27,1.73,1.73,0,0,1-.53-.1c-.42-.1-.81-.21-1.06,0s-.16.31-.28.82c-.17.71-.51,2.18-1.15,2.27a10.59,10.59,0,0,1-1.18,0c-1.15,0-2.35,0-2.74.85a1.13,1.13,0,0,1-.91.67,1.44,1.44,0,0,0-.52.2S11,8.19,11,8.58c0,.08,0,.11.27.78.11.27.28.72.44,1.15h.72c-.13-.36-.31-.82-.54-1.4l-.19-.48A15.66,15.66,0,0,1,13.21,7.1,1,1,0,0,1,13.5,7a1.77,1.77,0,0,0,1.35-1c.21-.46,1.23-.45,2.13-.45a10.13,10.13,0,0,0,1.27,0c1.1-.15,1.48-1.79,1.71-2.78,0-.15.08-.34.11-.45a2.88,2.88,0,0,1,.4.09,1.65,1.65,0,0,0,.94.08A1.62,1.62,0,0,0,22,2a1.47,1.47,0,0,1,.33-.3c.41.1.84-.21,1.26-.59a1.13,1.13,0,0,1,.32.48h-.11a.86.86,0,0,0-.6.25L23,2c-.37.53-.62.8-.75.82-.62.1-.86.4-.85,1.07,0,.44-.12.64-.2.66a.87.87,0,0,0-.65.55.33.33,0,0,0,0,.32,1.46,1.46,0,0,0,1.17.5,5.45,5.45,0,0,1,.79.12c.7.17,1.47,1.22,1.71,1.65a1.93,1.93,0,0,0-.29.17.68.68,0,0,0-.26.55,3.18,3.18,0,0,0,1.22,2.08h.95a3.25,3.25,0,0,0-.41-.42"/><path class="cls-3" d="M25.48,10.09A2.55,2.55,0,0,1,24.4,8.4a.87.87,0,0,1,.25-.11A.54.54,0,0,0,25,8a.62.62,0,0,0,0-.46c-.16-.36-1.14-1.89-2.23-2.16a8.71,8.71,0,0,0-.89-.14,2.75,2.75,0,0,1-.43-.06c.43-.12.69-.62.68-1.31,0-.35,0-.35.28-.4.44-.06.82-.55,1.19-1.1l.12-.16.15,0c.19,0,.7-.07.72-.61a1.61,1.61,0,0,0-.8-1.22.42.42,0,0,0-.47,0l-.11.1c-.5.46-.67.5-.72.5-.42-.1-.72.23-1,.49a1.36,1.36,0,0,1-.3.27,1.83,1.83,0,0,1-.53-.1c-.41-.1-.8-.21-1,0s-.17.31-.29.82c-.16.71-.5,2.18-1.14,2.27a10.77,10.77,0,0,1-1.18,0c-1.16,0-2.36,0-2.74.85a1.13,1.13,0,0,1-.91.67,1.37,1.37,0,0,0-.52.2S11,8.19,11,8.58a3.35,3.35,0,0,0,.28.78c.12.32.33.86.51,1.35h.71c-.13-.39-.33-.91-.6-1.6-.07-.18-.15-.36-.19-.48A15.64,15.64,0,0,1,13.21,7.1,1,1,0,0,1,13.5,7a1.76,1.76,0,0,0,1.36-1c.21-.46,1.22-.45,2.12-.45a10,10,0,0,0,1.27,0C19.36,5.3,19.74,3.66,20,2.67a3.71,3.71,0,0,1,.11-.45,3.7,3.7,0,0,1,.4.09,1.62,1.62,0,0,0,.93.08A1.56,1.56,0,0,0,22,2a1.47,1.47,0,0,1,.33-.3c.4.1.84-.21,1.25-.59a1,1,0,0,1,.32.48h-.11a.82.82,0,0,0-.59.25L23,2c-.36.53-.61.8-.74.82-.62.1-.86.4-.85,1.07,0,.44-.13.64-.2.66a.91.91,0,0,0-.66.55.33.33,0,0,0,.05.32,1.44,1.44,0,0,0,1.16.5,5.77,5.77,0,0,1,.8.12c.69.17,1.46,1.22,1.71,1.65a1.28,1.28,0,0,0-.29.17.63.63,0,0,0-.26.55,3.25,3.25,0,0,0,1.33,2.18,2,2,0,0,1,.32.33h.43l.38,0a2.78,2.78,0,0,0-.71-.87m8.79,12H33.6a6.9,6.9,0,0,1,0,1.87,3.22,3.22,0,0,0-.58-.3,2.27,2.27,0,0,0-.72-.12c-.22,0-.38,0-.42,0a.33.33,0,0,0-.29.35v.26c0,.35,0,.77,0,.95a4,4,0,0,1-.58.42,2.62,2.62,0,0,0-.75.61.59.59,0,0,0,.28.81,2.21,2.21,0,0,1,.3.26c0,.07-.13.19-.46.43a1.45,1.45,0,0,1,0-.25c0-.59-.91-.94-.92-.94-.26-.09-.4.08-.78.55l-.09.11-.15,0a3.26,3.26,0,0,0-1-.18.53.53,0,0,0-.36.24,5.27,5.27,0,0,0-.44,3c0,.1,0,.19,0,.27s.06.31.07.4l-.12,0-.1,0a2.24,2.24,0,0,0-1.14,1l-.48,0a1.6,1.6,0,0,1-.67-.38A2.94,2.94,0,0,0,23,30.84a1.37,1.37,0,0,0-1.26.37,1.48,1.48,0,0,1-.31.22,2.72,2.72,0,0,1-1-.21,3.47,3.47,0,0,0-.81-.21c-.49,0-.72.42-.88.75a1.07,1.07,0,0,1-.26.41,3.13,3.13,0,0,0-1,1.45,1.36,1.36,0,0,0-.44-.48s0,0,0,0a.71.71,0,0,1,.18-.51,1.88,1.88,0,0,0,.18-1.82.45.45,0,0,0-.37-.16,1.08,1.08,0,0,0-.47.13s0,0,0-.06a1.16,1.16,0,0,0-.47-1.22c-.3-.23-.59,0-.72.13a1.34,1.34,0,0,1-.14.11.7.7,0,0,1-.17-.22c-.59-1-2.34-1-3-1H12a.8.8,0,0,0-.66.41c-.08.13-.13.18-.23.21-.25.06-.6-.18-.83-.41s-.39-.24-4.17-.52L5,28.1c-.12,0-.26-.19-.26-1,0,0,0-.09,0-.12V27l.06-.05.09-.09a5.22,5.22,0,0,0,.31-2.07,1.58,1.58,0,0,0-.4-.93l0-.09H4a.54.54,0,0,0,0,.21l.12.16c.09.11.37.46.36.63a10.08,10.08,0,0,1-.16,1.66s0,0,0,0a.72.72,0,0,0-.26.63.28.28,0,0,1,0,.1c0,.41,0,1.52.85,1.61L6,28.86c1.11.08,3.38.25,3.79.37a1.65,1.65,0,0,0,1.42.54,1,1,0,0,0,.62-.48s.08-.11.11-.12h.12c1.34,0,2.15.2,2.41.66a1,1,0,0,0,.64.55.88.88,0,0,0,.69-.27.46.46,0,0,1,.09.43c-.18.79.06,1,.13,1a.39.39,0,0,0,.44,0l.05,0a2.06,2.06,0,0,1,.36-.2,1.61,1.61,0,0,1-.2.84,1.43,1.43,0,0,0-.32,1.07.71.71,0,0,0,.35.49,1.69,1.69,0,0,1,.35.52c.12.23.21.42.44.43h0a.37.37,0,0,0,.31-.18l.11-.24c.51-1.18.74-1.44.82-1.49a1.47,1.47,0,0,0,.58-.72c0-.12.16-.35.22-.37a3.71,3.71,0,0,1,.65.17,2.34,2.34,0,0,0,1.52.19,1.83,1.83,0,0,0,.47-.31.73.73,0,0,1,.7-.24,2.36,2.36,0,0,1,.84.47,2.16,2.16,0,0,0,1,.51c.58.05.84.08,1-.16l.06-.08a1.66,1.66,0,0,1,.78-.74l.1,0c.71-.2.66-.49.53-1.2,0-.08,0-.17,0-.26a5.07,5.07,0,0,1,.29-2.46,3.35,3.35,0,0,1,.68.16c.35.09.48.13.63,0s.13-.1.32-.34l.2-.25c.15.09.3.21.31.28,0,.5.19.81.43.92a.49.49,0,0,0,.49-.06l.1-.07c.39-.27.77-.57.82-1a.63.63,0,0,0-.16-.5,2.51,2.51,0,0,0-.41-.37h0c.11-.09.31-.22.45-.31.53-.34.83-.55.87-.84s0-.7,0-1.05a1.57,1.57,0,0,1,.51.07,6,6,0,0,1,.89.52.34.34,0,0,0,.52-.23,9.06,9.06,0,0,0,.11-2.48"/><path class="cls-3" d="M22.06,12.56a4.83,4.83,0,0,0-3.44-1.43h0a4.87,4.87,0,0,0-3.45,8.32l3.45,3.44,3.44-3.44a4.86,4.86,0,0,0,0-6.89m-1.2,5.82a3.2,3.2,0,0,1-4.49,0,3.45,3.45,0,0,1-1-2,3.27,3.27,0,0,1,.94-2.69,3.27,3.27,0,0,1,5.57,2.45,3.44,3.44,0,0,1-1,2.24"/><path class="cls-3" d="M21.1,16.11a2.58,2.58,0,0,1-.8,1.71,2.42,2.42,0,0,1-3.37,0,2.6,2.6,0,0,1-.78-1.53,2.48,2.48,0,1,1,5-.18"/><path class="cls-4" d="M37.29,21a.72.72,0,0,1-.55.26H32.83a3.13,3.13,0,0,0-6.26,0H21.46L22.65,20a5.68,5.68,0,0,0,1.67-3.81H27.2a1,1,0,0,0,.9-.51,1,1,0,0,0,0-1l-.57-1a1.85,1.85,0,0,0-1.61-.93H23.31a5.42,5.42,0,0,0-.66-.79l-.19-.18h3.35a3.13,3.13,0,0,1,2.58,1.35l1.5,2.2a3.19,3.19,0,0,0,2,1.35l4.53,1a.71.71,0,0,1,.54.55l.45,2.15a.73.73,0,0,1-.14.59"/><path class="cls-4" d="M27.42,15.32a.25.25,0,0,1-.22.13H24.3a5.78,5.78,0,0,0-.53-1.92h2.15a1.06,1.06,0,0,1,.93.54l.57,1a.24.24,0,0,1,0,.25"/><path class="cls-4" d="M14.09,12.32H8.27a.38.38,0,0,1-.39-.39.39.39,0,0,1,.39-.39h5.82a.39.39,0,0,1,.39.39.38.38,0,0,1-.39.39"/><path class="cls-4" d="M12.29,15H2.78a.4.4,0,0,1,0-.79h9.51a.4.4,0,0,1,0,.79"/><path class="cls-4" d="M13.07,20.25H1.23a.39.39,0,0,1-.39-.39.38.38,0,0,1,.39-.39H13.07a.39.39,0,0,1,.39.39.4.4,0,0,1-.39.39"/><path class="cls-4" d="M15.73,22.89H9a.39.39,0,0,1,0-.78h6.75a.39.39,0,1,1,0,.78"/><path class="cls-4" d="M6.31,22.89H3.73a.39.39,0,1,1,0-.78H6.31a.39.39,0,0,1,0,.78"/><path class="cls-4" d="M12.29,17.66H8.65a.38.38,0,0,1-.39-.39.39.39,0,0,1,.39-.39h3.64a.39.39,0,0,1,.39.39.38.38,0,0,1-.39.39"/><path class="cls-4" d="M6.83,17.55H5a.39.39,0,0,1,0-.78H6.83a.39.39,0,1,1,0,.78"/><path class="cls-4" d="M29.7,23.87a2.53,2.53,0,1,1,2.52-2.52,2.53,2.53,0,0,1-2.52,2.52m0-3.75a1.23,1.23,0,1,0,1.23,1.23,1.23,1.23,0,0,0-1.23-1.23"/><path class="cls-4" d="M54,17.14a7.6,7.6,0,0,1-5.2,1.55H44.23V28H42.87V6.79h5.89A7.4,7.4,0,0,1,54,8.41a5.72,5.72,0,0,1,1.72,4.36A5.56,5.56,0,0,1,54,17.14m.39-4.37A4.58,4.58,0,0,0,53,9.23,6.16,6.16,0,0,0,48.76,8H44.23v9.48h4.53q5.6,0,5.59-4.71"/><path class="cls-4" d="M71.38,22.56H61.32L59.3,28H57.82L65.61,7.28h1.51L74.88,28H73.4ZM71,21.41,66.37,9.06,61.75,21.41Z"/><polygon class="cls-4" points="93.46 28 92.1 28 79.66 9.03 79.66 28 78.3 28 78.3 6.82 79.66 6.82 92.1 25.73 92.1 6.82 93.46 6.82 93.46 28"/><path class="cls-4" d="M107.29,6.79V23.25a4.85,4.85,0,0,1-1.36,3.58,4.93,4.93,0,0,1-3.68,1.38,5,5,0,0,1-3.85-1.5A5.77,5.77,0,0,1,97,22.59h1.36a5.08,5.08,0,0,0,.94,3.17,3.45,3.45,0,0,0,3,1.24A3.34,3.34,0,0,0,105,25.9a4.21,4.21,0,0,0,.86-2.65V6.79Z"/><path class="cls-4" d="M124.44,22.56h-10l-2,5.43h-1.48l7.79-20.71h1.51L128,28h-1.48ZM124,21.41,119.43,9.06l-4.62,12.35Z"/><path class="cls-4" d="M143.61,18.84a5.25,5.25,0,0,1,1.25,3.48,5.57,5.57,0,0,1-.77,2.91,5.27,5.27,0,0,1-2.3,2,8.44,8.44,0,0,1-3.7.74h-6.73V6.79H138a6.9,6.9,0,0,1,4.79,1.47,4.88,4.88,0,0,1,1.62,3.79,4.86,4.86,0,0,1-1.09,3.28,5.48,5.48,0,0,1-2.78,1.7,5.2,5.2,0,0,1,3.1,1.81m-10.89-2.41H138a5.39,5.39,0,0,0,3.67-1.13A4,4,0,0,0,143,12.17a3.87,3.87,0,0,0-1.27-3.05A5.66,5.66,0,0,0,137.88,8h-5.16ZM142,25.59a4.14,4.14,0,0,0,1.46-3.36,4.17,4.17,0,0,0-1.5-3.37,6.13,6.13,0,0,0-4.09-1.25h-5.19v9.21H138a6.11,6.11,0,0,0,4-1.23"/><path class="cls-4" d="M159.78,28l-5-8.61h-3.32V28h-2.75V7h6.8a9.07,9.07,0,0,1,4,.81A5.6,5.6,0,0,1,162,10a6.06,6.06,0,0,1,.82,3.17,5.94,5.94,0,0,1-5,6L163.07,28Zm-8.34-10.82h4.05a4.56,4.56,0,0,0,3.35-1.1A3.93,3.93,0,0,0,160,13.14a3.78,3.78,0,0,0-1.1-2.9,4.79,4.79,0,0,0-3.37-1h-4.05Z"/><rect class="cls-4" x="167.06" y="6.95" width="2.75" height="21.05"/><path class="cls-4" d="M187,8.23a9,9,0,0,1,3.87,3.67,11.31,11.31,0,0,1,1.34,5.62,11.24,11.24,0,0,1-1.34,5.6A8.86,8.86,0,0,1,187,26.74,13.19,13.19,0,0,1,181,28h-6.56V7H181a12.93,12.93,0,0,1,6,1.28m.26,15.34a8.22,8.22,0,0,0,2.14-6.05,8.41,8.41,0,0,0-2.16-6.14,8.32,8.32,0,0,0-6.2-2.2h-3.81V25.73H181a8.38,8.38,0,0,0,6.22-2.16"/><polygon class="cls-4" points="198.59 9.18 198.59 16.22 206.26 16.22 206.26 18.48 198.59 18.48 198.59 25.73 207.16 25.73 207.16 28 195.84 28 195.84 6.92 207.16 6.92 207.16 9.18 198.59 9.18"/></g></svg>